<svg xmlns="http://www.w3.org/2000/svg" viewBox="0 0 300 300" xml:space="preserve"><circle fill="#FFDA88" cx="152.69" cy="150" r="45.731"/><path fill="#FFE2A9" d="M117.719 150c0-23.433 17.632-42.72 40.351-45.389-1.765-.205-3.557-.342-5.38-.342-25.256 0-45.731 20.475-45.731 45.731s20.475 45.731 45.731 45.731c1.823 0 3.615-.137 5.38-.342-22.718-2.669-40.351-21.956-40.351-45.389z"/><path fill="#7FD3B9" d="M165.053 153.546c-.978-1.718-2.181-3.053-3.62-4.04-1.44-.967-3.568-2.06-6.378-3.247-3.846-1.545-5.759-3.384-5.759-5.496 0-1.072.368-1.997 1.104-2.779.746-.756 1.629-1.156 2.654-1.156 1.334 0 3.526.898 6.552 2.69l4.35-6.835c-1.86-2.69-5.653-4.035-8.575-4.13v-3.074c0-1.592-1.881-2.884-5.38-2.884-3.499 0-5.38 1.292-5.38 2.884v3.536s-1.245.599-3.425 2.863c-2.391 2.475-2.606 6.647-2.606 9.515 0 5.737 4.902 8.212 6.037 9.074 1.129.862 3.042 1.865 5.296 2.842 4.629 1.981 6.798 3.547 6.798 5.79 0 1.083-.483 2.122-1.508 3.11-1.025.993-2.081 1.409-3.189 1.493-3.137.221-5.711-1.986-9.316-4.639l-5.348 6.788c3.305 3.904 7.261 5.674 7.261 5.753v2.89c0 1.597 2.327 2.885 5.38 2.885 2.869 0 5.38-1.288 5.38-2.885v-2.89c0-.031 3.846-.536 6.562-2.879 2.674-2.312 4.597-5.89 4.597-9.573 0-2.012-.515-3.872-1.487-5.606z"/><path fill="none" d="M113.674 126.236c-4.232 6.93-6.714 15.048-6.714 23.764a45.49 45.49 0 0 0 5.296 21.331l11.543-24.021-10.125-21.074zM192.41 172.613c3.804-6.678 6.011-14.38 6.011-22.613 0-9.163-2.722-17.68-7.366-24.836l-9.473 22.146 10.828 25.303z"/><path fill="#FFC67B" d="M106.959 150c0-8.716 2.482-16.834 6.714-23.764L100.73 99.304C87.955 112.392 80.059 130.266 80.059 150c0 18.83 7.227 35.932 18.98 48.836l13.217-27.505A45.479 45.479 0 0 1 106.959 150z"/><path fill="#FE6F80" d="m202.866 97.565-11.811 27.599c4.644 7.156 7.366 15.673 7.366 24.836 0 8.233-2.207 15.935-6.011 22.613l12.09 28.251c12.867-13.103 20.822-31.046 20.822-50.864 0-20.633-8.643-39.211-22.456-52.435z"/><path fill="#9AD7D2" d="M152.69 104.269c16.093 0 30.216 8.333 38.365 20.895l11.811-27.599c-13.041-12.484-30.694-20.196-50.176-20.196-20.38 0-38.77 8.417-51.959 21.935l12.943 26.932c8.028-13.156 22.476-21.967 39.016-21.967z"/><path fill="#7FD3B9" d="M152.69 195.731c-17.548 0-32.766-9.893-40.435-24.4l-13.217 27.505c13.285 14.585 32.367 23.796 53.652 23.796 20.296 0 38.628-8.343 51.81-21.767l-12.09-28.251c-7.876 13.796-22.697 23.117-39.72 23.117z"/><path fill="#E5E5E4" d="M149.995 93.509a5.348 5.348 0 0 1-3.121-1.003 5.376 5.376 0 0 1-1.25-7.503l26.9-37.661a5.378 5.378 0 0 1 4.377-2.254h21.52a5.377 5.377 0 0 1 5.38 5.38 5.377 5.377 0 0 1-5.38 5.38h-18.752l-25.292 35.407a5.369 5.369 0 0 1-4.382 2.254zM133.86 254.912h-21.52c-2.971 0-5.38-2.406-5.38-5.38s2.409-5.38 5.38-5.38h18.752l25.292-35.407c1.734-2.417 5.097-2.979 7.503-1.25a5.376 5.376 0 0 1 1.25 7.503l-26.9 37.661a5.379 5.379 0 0 1-4.377 2.253zM90.819 152.69H58.538a5.385 5.385 0 0 1-3.804-1.576l-10.76-10.76a5.376 5.376 0 0 1 0-7.607 5.376 5.376 0 0 1 7.607 0l9.184 9.184h30.053a5.38 5.38 0 1 1 .001 10.759zM252.222 163.45a5.366 5.366 0 0 1-3.804-1.576l-9.185-9.184H214.56a5.377 5.377 0 0 1-5.38-5.38 5.377 5.377 0 0 1 5.38-5.38h26.901a5.38 5.38 0 0 1 3.804 1.576l10.76 10.76a5.376 5.376 0 0 1 0 7.607 5.354 5.354 0 0 1-3.803 1.577z"/><path fill="#FFC67B" d="M20.877 109.649h43.041v10.76H20.877z"/><path fill="#7FD3B9" d="M53.158 244.152h43.041v10.76H53.158z"/><path fill="#9AD7D2" d="M214.561 45.088h43.041v10.76h-43.041z"/><path fill="#FE6F80" d="M236.082 174.21h43.041v10.76h-43.041z"/><path fill="#FFD39F" d="M20.877 109.649h10.76v10.76h-10.76z"/><path fill="#BBEAD9" d="M53.158 244.152h10.76v10.76h-10.76z"/><path fill="#FFA1AA" d="M236.082 174.21h10.76v10.76h-10.76z"/><path fill="#ABEDE6" d="M214.561 45.088h10.76v10.76h-10.76z"/><g><path fill="#161616" d="M165.053 153.546c-.978-1.718-2.181-3.053-3.62-4.04-1.44-.967-3.568-2.06-6.378-3.247-3.846-1.545-5.759-3.384-5.759-5.496 0-1.072.368-1.997 1.104-2.779.746-.756 1.629-1.156 2.654-1.156 1.334 0 3.526.898 6.552 2.69l4.35-6.835c-1.86-2.69-5.653-4.035-8.575-4.13v-3.074c0-1.592-1.881-2.884-5.38-2.884-3.499 0-5.38 1.292-5.38 2.884v3.536s-1.245.599-3.425 2.863c-2.391 2.475-2.606 6.647-2.606 9.515 0 5.737 4.902 8.212 6.037 9.074 1.129.862 3.042 1.865 5.296 2.842 4.629 1.981 6.798 3.547 6.798 5.79 0 1.083-.483 2.122-1.508 3.11-1.025.993-2.081 1.409-3.189 1.493-3.137.221-5.711-1.986-9.316-4.639l-5.348 6.788c3.305 3.904 7.261 5.674 7.261 5.753v2.89c0 1.597 2.327 2.885 5.38 2.885 2.869 0 5.38-1.288 5.38-2.885v-2.89c0-.031 3.846-.536 6.562-2.879 2.674-2.312 4.597-5.89 4.597-9.573 0-2.012-.515-3.872-1.487-5.606z"/><path fill="none" d="M113.674 126.236c-4.232 6.93-6.714 15.048-6.714 23.764a45.49 45.49 0 0 0 5.296 21.331l11.543-24.021-10.125-21.074zM192.41 172.613c3.804-6.678 6.011-14.38 6.011-22.613 0-9.163-2.722-17.68-7.366-24.836l-9.473 22.146 10.828 25.303z"/><path fill="#161616" d="M99.039 204.216c-1.503 0-2.95-.63-3.977-1.755C81.919 188.029 74.678 169.398 74.678 150c0-20.449 7.884-39.789 22.201-54.453 1.227-1.256 2.987-1.865 4.723-1.55a5.379 5.379 0 0 1 3.977 2.974l12.943 26.932a5.385 5.385 0 0 1-.257 5.138c-3.878 6.347-5.926 13.592-5.926 20.958a39.83 39.83 0 0 0 4.671 18.815 5.378 5.378 0 0 1 .095 4.844l-13.216 27.51a5.386 5.386 0 0 1-4.85 3.048zm.381-95.218C90.356 120.714 85.439 135.01 85.439 150c0 13.981 4.369 27.505 12.436 38.838l8.396-17.475A51.217 51.217 0 0 1 101.579 150a50.91 50.91 0 0 1 6.024-23.979l-8.183-17.023zM204.5 206.244a5.3 5.3 0 0 1-.993-.095 5.368 5.368 0 0 1-3.951-3.168l-12.089-28.251a5.395 5.395 0 0 1 .268-4.781c3.473-6.095 5.307-12.993 5.307-19.949a40.178 40.178 0 0 0-6.499-21.909 5.365 5.365 0 0 1-.431-5.044l11.811-27.599a5.367 5.367 0 0 1 3.867-3.152 5.375 5.375 0 0 1 4.797 1.382c15.552 14.89 24.116 34.892 24.116 56.323 0 20.543-7.944 39.946-22.361 54.631a5.403 5.403 0 0 1-3.842 1.612zm-6.126-33.373 7.702 18c8.99-11.69 13.865-25.928 13.865-40.871 0-15.804-5.412-30.715-15.379-42.731l-7.471 17.464A50.861 50.861 0 0 1 203.8 150a51.146 51.146 0 0 1-5.426 22.871z"/><path fill="#161616" d="M113.674 131.616c-.089 0-.179 0-.268-.005a5.382 5.382 0 0 1-4.581-3.042l-12.943-26.932a5.38 5.38 0 0 1 .998-6.089c14.824-15.195 34.642-23.559 55.811-23.559 20.144 0 39.284 7.702 53.896 21.689a5.384 5.384 0 0 1 1.224 6.005L196 127.282a5.367 5.367 0 0 1-4.487 3.242c-1.981.21-3.888-.762-4.97-2.433-7.492-11.548-20.144-18.441-33.852-18.441-14.144 0-27.016 7.25-34.424 19.387a5.38 5.38 0 0 1-4.593 2.579zm-6.418-31.151 7.413 15.421c9.602-10.776 23.257-16.997 38.021-16.997 14.149 0 27.415 5.795 36.973 15.851l6.751-15.767c-12.205-10.487-27.594-16.224-43.724-16.224-16.997 0-32.992 6.262-45.434 17.716z"/><path fill="#161616" d="M149.995 93.509a5.348 5.348 0 0 1-3.121-1.003 5.376 5.376 0 0 1-1.25-7.503l26.9-37.661a5.378 5.378 0 0 1 4.377-2.254h21.52a5.377 5.377 0 0 1 5.38 5.38 5.377 5.377 0 0 1-5.38 5.38h-18.752l-25.292 35.407a5.369 5.369 0 0 1-4.382 2.254zM133.86 254.912h-21.52c-2.971 0-5.38-2.406-5.38-5.38s2.409-5.38 5.38-5.38h18.752l25.292-35.407c1.734-2.417 5.097-2.979 7.503-1.25a5.376 5.376 0 0 1 1.25 7.503l-26.9 37.661a5.379 5.379 0 0 1-4.377 2.253zM90.819 152.69H58.538a5.385 5.385 0 0 1-3.804-1.576l-10.76-10.76a5.376 5.376 0 0 1 0-7.607 5.376 5.376 0 0 1 7.607 0l9.184 9.184h30.053a5.38 5.38 0 1 1 .001 10.759zM252.222 163.45a5.366 5.366 0 0 1-3.804-1.576l-9.185-9.184H214.56a5.377 5.377 0 0 1-5.38-5.38 5.377 5.377 0 0 1 5.38-5.38h26.901a5.38 5.38 0 0 1 3.804 1.576l10.76 10.76a5.376 5.376 0 0 1 0 7.607 5.354 5.354 0 0 1-3.803 1.577zM20.877 109.649h43.041v10.76H20.877zM53.158 244.152h43.041v10.76H53.158zM214.561 45.088h43.041v10.76h-43.041zM236.082 174.21h43.041v10.76h-43.041z"/><path fill="#161616" d="M152.69 228.012c-21.83 0-42.839-9.315-57.629-25.55a5.39 5.39 0 0 1-.872-5.958l13.216-27.505a5.39 5.39 0 0 1 4.747-3.047c2.017-.021 3.909 1.066 4.86 2.863 7.022 13.287 20.693 21.536 35.677 21.536 14.433 0 27.862-7.818 35.049-20.407 1.009-1.771 2.842-2.848 4.981-2.701a5.368 5.368 0 0 1 4.634 3.252l12.089 28.251a5.38 5.38 0 0 1-1.109 5.89c-2.007 2.044-4.256 4.046-7.082 6.305-2.317 1.86-5.706 1.471-7.561-.846a5.38 5.38 0 0 1 .846-7.561 82.48 82.48 0 0 0 3.546-2.99l-6.856-16.025c-9.615 11.033-23.654 17.59-38.538 17.59a50.967 50.967 0 0 1-39.686-18.92l-7.5 15.61c12.568 12.405 29.564 19.45 47.186 19.45 8.38 0 16.661-1.592 24.605-4.734a5.375 5.375 0 0 1 6.983 3.021 5.384 5.384 0 0 1-3.021 6.983c-9.214 3.648-18.824 5.493-28.565 5.493z"/><path fill="#161616" d="M152.69 201.111c-28.182 0-51.111-22.928-51.111-51.111s22.928-51.111 51.111-51.111 51.111 22.929 51.111 51.111-22.928 51.111-51.111 51.111zm0-91.462c-22.251 0-40.351 18.1-40.351 40.351 0 22.251 18.1 40.351 40.351 40.351 22.251 0 40.351-18.1 40.351-40.351 0-22.251-18.1-40.351-40.351-40.351z"/></g></svg>